<svg width="123" height="123" viewBox="0 0 123 123" fill="none" xmlns="http://www.w3.org/2000/svg">
<path d="M32.5722 91.8634H95.7537C96.6935 91.8634 97.4526 91.1168 97.4526 90.1933V85.6288C97.4526 84.7063 96.6935 83.9587 95.7537 83.9587H26.2358C25.3008 83.9587 24.5369 84.7054 24.5369 85.6288V121.326C24.5369 122.249 25.296 122.996 26.2358 122.996H95.7537C96.6935 122.996 97.4526 122.249 97.4526 121.326V116.761C97.4526 115.838 96.6935 115.091 95.7537 115.091H32.5751V107.435H95.1483C96.0871 107.435 96.8472 106.689 96.8472 105.765V101.201C96.8472 100.277 96.0881 99.5307 95.1473 99.5307H32.578V91.8509L32.5732 91.8634H32.5722Z" fill="white"/>
<path d="M20.2152 83.9428H1.69893C0.759139 83.9428 0 84.6895 0 85.6129V90.2139C0 91.1335 0.759139 91.8801 1.69989 91.8801H7.01867V121.33C7.01867 122.253 7.77781 123 8.71857 123H13.2042C14.1392 123 14.9031 122.253 14.9031 121.33V91.8801H20.2229C21.1579 91.8801 21.9228 91.1335 21.9228 90.21V85.6091C21.9228 84.6866 21.1627 83.939 20.2219 83.939L20.2142 83.9428H20.2152Z" fill="white"/>
<path d="M122.987 43.4645V101.141C122.987 107.443 117.676 112.554 111.221 112.377C104.99 112.204 100.113 107.013 100.113 100.887V43.4645C100.113 42.5449 100.873 41.7944 101.813 41.7944H106.458C107.397 41.7944 108.157 42.5411 108.157 43.4645V101.008C108.157 102.734 109.583 104.364 111.339 104.472C113.313 104.592 114.955 103.051 114.955 101.141V43.4645C114.955 42.5449 115.716 41.7944 116.654 41.7944H121.299C122.239 41.7944 122.999 42.5411 122.999 43.4645H122.987Z" fill="white"/>
<path d="M77.1831 41.344C65.8825 41.344 56.6863 50.3806 56.6863 61.4842C56.6863 72.5888 65.8825 81.6263 77.1831 81.6263H77.4515C88.7521 81.6263 97.9483 72.5926 97.9483 61.4842C97.9483 50.3806 88.7559 41.344 77.4515 41.344H77.1831ZM77.1737 49.1009H77.4515C84.4009 49.1009 90.0562 54.6597 90.0562 61.4842C90.0562 68.3136 84.3971 73.8657 77.4515 73.8657H77.1737C70.2261 73.8657 64.5745 68.3136 64.5745 61.4842C64.5745 54.6558 70.229 49.1009 77.1737 49.1009Z" fill="white"/>
<path d="M1.7004 41.7996C0.75965 41.7996 0 42.5474 0 43.4699V79.5107C0.00208387 80.4324 0.759984 81.1773 1.7004 81.1773H34.1C45.0037 81.1773 54.2336 72.7949 54.5556 62.0843C54.8948 50.9567 45.7804 41.7996 34.5298 41.7996H1.7004ZM7.88079 49.5433H34.5298C41.3899 49.5433 46.9371 55.1525 46.6748 61.9492C46.4259 68.4163 40.8138 73.4335 34.2314 73.4335H7.88079V49.5433Z" fill="white"/>
<path d="M108.15 7.90106H121.289C122.227 7.90106 122.988 7.15441 122.988 6.23095V1.67035C122.988 0.746892 122.227 0.000244141 121.289 0.000244141H101.809C100.87 0.000244141 100.11 0.746892 100.11 1.67035V37.3672C100.11 38.2868 100.87 39.0373 101.809 39.0373H121.289C122.227 39.0373 122.988 38.2907 122.988 37.3672V32.8028C122.988 31.8831 122.227 31.1327 121.289 31.1327H108.15V23.4759H120.659C121.599 23.4759 122.359 22.7293 122.359 21.8058V17.2414C122.359 16.3217 121.599 15.5713 120.659 15.5713H108.15V7.90106Z" fill="white"/>
<path d="M51.7494 0.0302734C50.8086 0.0302734 50.0508 0.781996 50.0508 1.70065V37.366H50.0452C50.0452 38.2895 50.8096 39.0364 51.7456 39.0364H56.3907C57.3305 39.0364 58.0892 38.2856 58.0892 37.366V29.5265C58.0892 28.603 58.8537 27.8561 59.7896 27.8561H81.8104L88.6402 38.265C88.9506 38.7387 89.49 39.027 90.0666 39.027H95.5901C96.9335 39.027 97.7439 37.5628 97.0165 36.4539L90.2149 26.0844C94.5699 23.6917 97.5146 19.1092 97.4857 13.8625C97.4415 6.25477 90.768 0.0302734 83.0229 0.0302734H51.7494ZM58.0912 7.93735H83.113C86.1889 7.93735 88.9472 10.0726 89.3835 13.0592C89.9274 16.7646 86.9995 19.9603 83.3307 19.9603H58.0893L58.0912 19.9584L58.0912 7.93735Z" fill="white"/>
<path d="M121.289 115.095H101.809C100.87 115.095 100.11 115.842 100.11 116.765V121.33C100.11 122.253 100.87 123 101.809 123H121.289C122.227 123 122.988 122.253 122.988 121.33V116.765C122.988 115.842 122.227 115.095 121.289 115.095Z" fill="white"/>
<path d="M27.5646 3.78655e-05C27.1951 -0.00234899 26.8347 0.113745 26.5361 0.331281C26.2375 0.548817 26.0164 0.856339 25.9055 1.20872L14.9072 36.9079L14.896 36.9041C14.5654 37.9765 15.3807 39.0568 16.5213 39.0568H21.3748C21.7366 39.0585 22.0894 38.9444 22.3818 38.7314C22.6742 38.5183 22.8908 38.2174 23.0001 37.8726L24.4472 33.1824C24.6682 32.4636 25.3423 31.9756 26.1063 31.9756H36.1304C36.4883 31.9729 36.8381 32.0815 37.1316 32.2862C37.4251 32.491 37.6478 32.7818 37.7689 33.1186L39.4655 37.9364C39.5838 38.2667 39.8017 38.5523 40.0891 38.7536C40.3765 38.955 40.7193 39.0622 41.0702 39.0606H45.9368C47.1294 39.0606 47.9635 37.9088 47.5753 36.8046L35.0156 1.12426C34.8979 0.79349 34.6802 0.507551 34.3926 0.306104C34.1051 0.104657 33.762 -0.00231084 33.4109 3.78655e-05H27.5646ZM30.7026 14.0331C30.8957 14.0294 31.0922 14.1355 31.1681 14.3521L34.5914 24.0797H27.2605V24.076L30.2522 14.3672C30.3199 14.1486 30.5096 14.0367 30.7026 14.0331V14.0331Z" fill="white"/>
<path d="M1.6999 39.0332H10.9489C11.8849 39.0332 12.6488 38.2866 12.6488 37.3631V32.7987C12.6488 31.8791 11.8887 31.1286 10.9489 31.1286H8.04015V1.67011C8.04015 0.746647 7.28101 0 6.34025 0H1.69893C0.761061 0 0 0.746647 0 1.67011V37.367C0 38.2866 0.759139 39.0371 1.6999 39.0371V39.0332Z" fill="white"/>
</svg>
