<svg width="42" height="53" viewBox="0 0 42 53" fill="none" xmlns="http://www.w3.org/2000/svg">
<g clip-path="url(#clip0_631_1332)">
<path d="M38.4255 9.30198L21.4481 0.217343C21.1708 0.068991 20.8292 0.068991 20.5519 0.217343L3.57457 9.30198C3.29728 9.45033 3.12646 9.72453 3.12646 10.0213V28.1907C3.12646 28.4875 3.29728 28.7617 3.57457 28.91L20.552 37.9947C20.6906 38.0689 20.8453 38.106 21.0001 38.106C21.1549 38.106 21.3096 38.0689 21.4482 37.9947L38.4256 28.91C38.7029 28.7617 38.8737 28.4875 38.8737 28.1907V10.0213C38.8736 9.72461 38.7027 9.45033 38.4255 9.30198ZM37.0812 26.4866L36.5023 26.1769C36.0739 25.9474 35.5256 26.0836 35.2781 26.4809C35.0306 26.8782 35.1775 27.3862 35.6061 27.6156L36.433 28.0581L21.8962 35.8368V20.1678C21.9077 20.1682 21.9191 20.1698 21.9305 20.1698C22.2403 20.1698 22.5415 20.0208 22.7076 19.7544C22.8349 19.55 22.8571 19.3165 22.7911 19.1065L37.0812 11.4598V26.4866ZM6.72209 26.4809C6.47465 26.0837 5.92679 25.9474 5.49786 26.1769L4.9189 26.4866V11.4599L19.209 19.1066C19.143 19.3165 19.1653 19.55 19.2925 19.7544C19.4586 20.0208 19.7597 20.1698 20.0696 20.1698C20.0809 20.1698 20.0924 20.1681 20.1039 20.1678V35.8367L5.56705 28.058L6.39399 27.6155C6.82274 27.3862 6.96954 26.8782 6.72209 26.4809ZM21.0001 3.56009C21.495 3.56009 21.8963 3.18821 21.8963 2.72945V2.37535L36.1848 10.0212L21.8781 17.6768C21.7947 17.2981 21.4332 17.0132 21.0001 17.0132C20.5669 17.0132 20.2054 17.2981 20.122 17.6769L5.81521 10.0212L20.1039 2.37535V2.72953C20.1039 3.18821 20.5052 3.56009 21.0001 3.56009Z" fill="#676767"/>
<path d="M27.7451 23.4092L29.3439 24.2648C29.4851 24.3403 29.6391 24.3762 29.7911 24.3762C30.1009 24.3762 30.4021 24.2272 30.5681 23.9608C30.8157 23.5635 30.6688 23.0555 30.2401 22.8261L28.6414 21.9705C28.2126 21.7412 27.6647 21.8773 27.4171 22.2746C27.1696 22.6719 27.3165 23.1798 27.7451 23.4092Z" fill="#676767"/>
<path d="M23.815 21.306L25.4138 22.1615C25.555 22.2371 25.709 22.2729 25.861 22.2729C26.1708 22.2729 26.4721 22.124 26.6381 21.8575C26.8856 21.4602 26.7387 20.9522 26.31 20.7228L24.7112 19.8673C24.2824 19.6378 23.7344 19.7741 23.4869 20.1714C23.2394 20.5687 23.3863 21.0767 23.815 21.306Z" fill="#676767"/>
<path d="M31.6758 25.5124L33.2747 26.368C33.4158 26.4435 33.5699 26.4794 33.7219 26.4794C34.0316 26.4794 34.3329 26.3304 34.4989 26.0639C34.7464 25.6667 34.5995 25.1586 34.1709 24.9293L32.572 24.0737C32.1433 23.8443 31.5951 23.9805 31.3478 24.3777C31.1003 24.775 31.2471 25.2831 31.6758 25.5124Z" fill="#676767"/>
<path d="M16.139 22.2729C16.291 22.2729 16.4451 22.237 16.5862 22.1615L18.185 21.3059C18.6137 21.0766 18.7606 20.5686 18.5131 20.1713C18.2656 19.774 17.7175 19.6379 17.2888 19.8673L15.69 20.7228C15.2613 20.9522 15.1144 21.4602 15.3619 21.8575C15.5279 22.124 15.8291 22.2729 16.139 22.2729Z" fill="#676767"/>
<path d="M8.27813 26.4793C8.43013 26.4793 8.58419 26.4435 8.72534 26.3679L10.3242 25.5125C10.7529 25.2831 10.8997 24.7751 10.6522 24.3778C10.4049 23.9806 9.85691 23.8445 9.42798 24.0738L7.82913 24.9293C7.40046 25.1586 7.25357 25.6666 7.50111 26.0639C7.66709 26.3304 7.96831 26.4793 8.27813 26.4793Z" fill="#676767"/>
<path d="M12.2088 24.3762C12.3608 24.3762 12.5149 24.3403 12.656 24.2648L14.2548 23.4092C14.6834 23.1798 14.8303 22.6719 14.5828 22.2746C14.3353 21.8773 13.7872 21.7412 13.3586 21.9705L11.7598 22.8261C11.3311 23.0555 11.1842 23.5635 11.4318 23.9608C11.5978 24.2272 11.899 24.3762 12.2088 24.3762Z" fill="#676767"/>
<path d="M20.104 6.93584C20.104 7.39461 20.5053 7.76648 21.0002 7.76648C21.4951 7.76648 21.8964 7.39461 21.8964 6.93584V5.22481C21.8964 4.76604 21.4951 4.39417 21.0002 4.39417C20.5053 4.39417 20.104 4.76604 20.104 5.22481V6.93584Z" fill="#676767"/>
<path d="M21.0002 8.60046C20.5053 8.60046 20.104 8.97234 20.104 9.4311V11.1421C20.104 11.6009 20.5053 11.9728 21.0002 11.9728C21.4951 11.9728 21.8964 11.6009 21.8964 11.1421V9.4311C21.8964 8.97234 21.4952 8.60046 21.0002 8.60046Z" fill="#676767"/>
<path d="M21.0002 12.8069C20.5053 12.8069 20.104 13.1788 20.104 13.6375V15.3486C20.104 15.8073 20.5053 16.1792 21.0002 16.1792C21.4951 16.1792 21.8964 15.8073 21.8964 15.3486V13.6375C21.8964 13.1788 21.4952 12.8069 21.0002 12.8069Z" fill="#676767"/>
</g>
<path d="M12.3993 43.904C12.4593 42.974 12.8143 42.249 13.4643 41.729C14.1243 41.209 14.9643 40.949 15.9843 40.949C16.6843 40.949 17.2893 41.074 17.7993 41.324C18.3093 41.574 18.6943 41.914 18.9543 42.344C19.2143 42.774 19.3443 43.259 19.3443 43.799C19.3443 44.419 19.1793 44.949 18.8493 45.389C18.5193 45.829 18.1243 46.124 17.6643 46.274V46.334C18.2543 46.514 18.7143 46.844 19.0443 47.324C19.3743 47.794 19.5393 48.399 19.5393 49.139C19.5393 49.729 19.4043 50.254 19.1343 50.714C18.8643 51.174 18.4643 51.539 17.9343 51.809C17.4043 52.069 16.7693 52.199 16.0293 52.199C14.9493 52.199 14.0593 51.924 13.3593 51.374C12.6693 50.814 12.2993 50.014 12.2493 48.974H13.8993C13.9393 49.504 14.1443 49.939 14.5143 50.279C14.8843 50.609 15.3843 50.774 16.0143 50.774C16.6243 50.774 17.0943 50.609 17.4243 50.279C17.7543 49.939 17.9193 49.504 17.9193 48.974C17.9193 48.274 17.6943 47.779 17.2443 47.489C16.8043 47.189 16.1243 47.039 15.2043 47.039H14.8143V45.629H15.2193C16.0293 45.619 16.6443 45.484 17.0643 45.224C17.4943 44.964 17.7093 44.554 17.7093 43.994C17.7093 43.514 17.5543 43.134 17.2443 42.854C16.9343 42.564 16.4943 42.419 15.9243 42.419C15.3643 42.419 14.9293 42.564 14.6193 42.854C14.3093 43.134 14.1243 43.484 14.0643 43.904H12.3993ZM25.4905 41.714C26.6005 41.714 27.5705 41.929 28.4005 42.359C29.2405 42.779 29.8855 43.389 30.3355 44.189C30.7955 44.979 31.0255 45.904 31.0255 46.964C31.0255 48.024 30.7955 48.944 30.3355 49.724C29.8855 50.504 29.2405 51.104 28.4005 51.524C27.5705 51.934 26.6005 52.139 25.4905 52.139H22.0855V41.714H25.4905ZM25.4905 50.744C26.7105 50.744 27.6455 50.414 28.2955 49.754C28.9455 49.094 29.2705 48.164 29.2705 46.964C29.2705 45.754 28.9455 44.809 28.2955 44.129C27.6455 43.449 26.7105 43.109 25.4905 43.109H23.7955V50.744H25.4905Z" fill="#676767"/>
<defs>
<clipPath id="clip0_631_1332">
<rect width="41" height="38" fill="white" transform="translate(0.5 0.106079)"/>
</clipPath>
</defs>
</svg>
