<svg width="21" height="21" xmlns="http://www.w3.org/2000/svg" xmlns:xlink="http://www.w3.org/1999/xlink" xml:space="preserve" overflow="hidden"><defs><clipPath id="clip0"><rect x="629" y="349" width="21" height="21"/></clipPath><clipPath id="clip1"><rect x="630" y="350" width="20" height="20"/></clipPath><clipPath id="clip2"><rect x="630" y="350" width="20" height="20"/></clipPath><clipPath id="clip3"><rect x="630" y="350" width="20" height="20"/></clipPath></defs><g clip-path="url(#clip0)" transform="translate(-629 -349)"><g clip-path="url(#clip1)"><g clip-path="url(#clip2)"><g clip-path="url(#clip3)"><path d="M639.961 369.922C645.41 369.922 649.922 365.4 649.922 359.961 649.922 354.512 645.4 350 639.951 350 634.512 350 630 354.512 630 359.961 630 365.4 634.521 369.922 639.961 369.922ZM639.961 368.262C635.352 368.262 631.67 364.57 631.67 359.961 631.67 355.352 635.342 351.66 639.951 351.66 644.56 351.66 648.262 355.352 648.262 359.961 648.262 364.57 644.57 368.262 639.961 368.262Z" fill="#000000" fill-rule="nonzero" fill-opacity="0.85"/><path d="M639.756 361.982C640.244 361.982 640.547 361.67 640.547 361.289 640.547 361.25 640.547 361.201 640.547 361.172 640.547 360.625 640.859 360.273 641.543 359.824 642.49 359.199 643.164 358.633 643.164 357.461 643.164 355.84 641.719 354.961 640.059 354.961 638.379 354.961 637.275 355.762 637.012 356.66 636.963 356.816 636.934 356.973 636.934 357.139 636.934 357.578 637.275 357.812 637.598 357.812 637.93 357.812 638.145 357.656 638.32 357.422L638.496 357.188C638.838 356.621 639.346 356.289 640 356.289 640.889 356.289 641.465 356.797 641.465 357.539 641.465 358.203 641.055 358.525 640.205 359.121 639.502 359.609 638.975 360.127 638.975 361.084 638.975 361.123 638.975 361.172 638.975 361.211 638.975 361.719 639.258 361.982 639.756 361.982ZM639.736 364.893C640.303 364.893 640.791 364.443 640.791 363.877 640.791 363.31 640.312 362.861 639.736 362.861 639.16 362.861 638.682 363.32 638.682 363.877 638.682 364.434 639.17 364.893 639.736 364.893Z" fill="#000000" fill-rule="nonzero" fill-opacity="0.85"/></g></g></g></g></svg>